{"title":"Road to Perdition(2002)MPEG-4[DaScubaDude]","uid":14534054,"size":1175958859,"categoryP":"video","categoryS":"movies","magnet":"?xt=urn:btih:aadf011af0b13300520c36eeaac83d3c4e2bef66&amp;dn=Road+to+Perdition%282002%29MPEG-4%5BDaScubaDude%5D&amp;tr=udp%3A%2F%2Ftracker.leechers-paradise.org%3A6969&amp;tr=udp%3A%2F%2Fzer0day.ch%3A1337&amp;tr=udp%3A%2F%2Fopen.demonii.com%3A1337&amp;tr=udp%3A%2F%2Ftracker.coppersurfer.tk%3A6969&amp;tr=udp%3A%2F%2Fexodus.desync.com%3A6969","seeders":0,"leechers":0,"uploader":"dascuba","files":1,"time":1462480687,"description":"Road to Perdition (2002)\r\nR | 1h 57min | Crime, Drama, Thriller | 12 July 2002 (USA)\r\nBonds of loyalty are put to the test when a hitman's son witnesses what his father does for a living.\r\nDirector: Sam Mendes\r\nWriters: Max Allan Collins (graphic novel), Richard Piers Rayner (graphic novel) | 1 more credit »\r\nStars: Tom Hanks, Tyler Hoechlin, Rob Maxey\r\n\r\nGeneral\r\nComplete name                            : RoadtoPerditionROAD_TO_PERDITION_Title1.mp4\r\nFormat                                   : MPEG-4\r\nFormat profile                           : Base Media\r\nCodec ID                                 : isom (isom/iso2/avc1/mp41)\r\nFile size                                : 1.10 GiB\r\nDuration                                 : 1h 56mn\r\nOverall bit rate                         : 1 341 Kbps\r\nMovie name                               : ROAD_TO_PERDITION\r\nGenre                                    : Crime\r\nWriting application                      : Lavf54.6.100\r\n\r\nVideo\r\nID                                       : 1\r\nFormat                                   : AVC\r\nFormat/Info                              : Advanced Video Codec\r\nFormat profile                           :   \r\nFormat settings, CABAC                   : No\r\nFormat settings, ReFrames                : 6 frames\r\nCodec ID                                 : avc1\r\nCodec ID/Info                            : Advanced Video Coding\r\nDuration                                 : 1h 56mn\r\nBit rate                                 : 1 206 Kbps\r\nWidth                                    : 720 pixels\r\nHeight                                   : 404 pixels\r\nDisplay aspect ratio                     : 16:9\r\nFrame rate mode                          : Constant\r\nFrame rate                               : 29.970 (30000/1001) fps\r\nColor space                              : YUV\r\nChroma subsampling                       : 4:2:0\r\nBit depth                                : 8 bits\r\nScan type                                : Progressive\r\nBits/(Pixel*Frame)                       : 0.138\r\nStream size                              : 1 009 MiB (90%)\r\n\r\nAudio\r\nID                                       : 2\r\nFormat                                   : AAC\r\nFormat/Info                              : Advanced Audio Codec\r\nFormat profile                           : LC\r\nCodec ID                                 : 40\r\nDuration                                 : 1h 56mn\r\nBit rate mode                            : Constant\r\nBit rate                                 : 128 Kbps\r\nChannel(s)                               : 2 channels\r\nChannel positions                        : Front: L R\r\nSampling rate                            : 44.1 KHz\r\nFrame rate                               : 43.066 fps (1024 spf)\r\nCompression mode                         : Lossy\r\nStream size                              : 107 MiB (10%)\r\nDefault                                  : Yes\r\nAlternate group                          : 1","torrent":{"xt":"urn:btih:aadf011af0b13300520c36eeaac83d3c4e2bef66","amp;dn":"Road+to+Perdition%282002%29MPEG-4%5BDaScubaDude%5D","amp;tr":["udp%3A%2F%2Ftracker.leechers-paradise.org%3A6969","udp%3A%2F%2Fzer0day.ch%3A1337","udp%3A%2F%2Fopen.demonii.com%3A1337","udp%3A%2F%2Ftracker.coppersurfer.tk%3A6969","udp%3A%2F%2Fexodus.desync.com%3A6969"],"infoHash":"aadf011af0b13300520c36eeaac83d3c4e2bef66","infoHashBuffer":{"type":"Buffer","data":[170,223,1,26,240,177,51,0,82,12,54,238,170,200,61,60,78,43,239,102]},"announce":[],"urlList":[]}}